<svg width="16" height="14" viewBox="0 0 16 14" fill="none" xmlns="http://www.w3.org/2000/svg">
<path d="M4.42857 0.14447C5.90357 0.14447 7.195 0.778756 8 1.8509C8.805 0.778756 10.0964 0.14447 11.5714 0.14447C12.7456 0.145794 13.8712 0.612799 14.7014 1.44303C15.5317 2.27326 15.9987 3.39892 16 4.57304C16 9.57304 8.58643 13.6202 8.27071 13.7873C8.1875 13.8321 8.09449 13.8555 8 13.8555C7.90551 13.8555 7.8125 13.8321 7.72929 13.7873C7.41357 13.6202 0 9.57304 0 4.57304C0.00132275 3.39892 0.468328 2.27326 1.29856 1.44303C2.12879 0.612799 3.25445 0.145794 4.42857 0.14447ZM8 12.6302C9.30429 11.8702 14.8571 8.40804 14.8571 4.57304C14.856 3.70196 14.5095 2.86689 13.8935 2.25094C13.2776 1.635 12.4425 1.28846 11.5714 1.28733C10.1821 1.28733 9.01571 2.02733 8.52857 3.2159C8.48552 3.3207 8.41228 3.41035 8.31817 3.47343C8.22405 3.53652 8.1133 3.5702 8 3.5702C7.8867 3.5702 7.77595 3.53652 7.68183 3.47343C7.58772 3.41035 7.51448 3.3207 7.47143 3.2159C6.98429 2.02518 5.81786 1.28733 4.42857 1.28733C3.55749 1.28846 2.72242 1.635 2.10647 2.25094C1.49053 2.86689 1.14399 3.70196 1.14286 4.57304C1.14286 8.40233 6.69714 11.8695 8 12.6302Z" fill="#858585"/>
</svg>
