<svg width="16" height="18" viewBox="0 0 16 18" fill="none" xmlns="http://www.w3.org/2000/svg">
<path fill-rule="evenodd" clip-rule="evenodd" d="M12.8443 5.87322C12.9548 5.78125 13.0972 5.73689 13.2403 5.7499C13.3835 5.76291 13.5156 5.83223 13.6076 5.94261L15.866 8.65306C15.9539 8.76392 15.995 8.90478 15.9805 9.04556C15.966 9.18633 15.8971 9.31585 15.7883 9.40645C15.6796 9.49705 15.5398 9.54154 15.3987 9.53042C15.2576 9.5193 15.1265 9.45345 15.0333 9.34694L12.775 6.63648C12.683 6.52605 12.6386 6.38361 12.6516 6.24049C12.6647 6.09736 12.734 5.96526 12.8443 5.87322Z" fill="#858585"/>
<path fill-rule="evenodd" clip-rule="evenodd" d="M12.8443 12.1268C12.734 12.0347 12.6647 11.9026 12.6516 11.7595C12.6386 11.6164 12.683 11.4739 12.775 11.3635L15.0333 8.65306C15.0782 8.59643 15.134 8.54937 15.1974 8.51463C15.2608 8.47989 15.3305 8.45817 15.4024 8.45076C15.4743 8.44336 15.547 8.4504 15.6161 8.47149C15.6852 8.49258 15.7495 8.52728 15.805 8.57356C15.8605 8.61983 15.9062 8.67674 15.9395 8.74095C15.9727 8.80515 15.9927 8.87534 15.9984 8.9474C16.0041 9.01946 15.9953 9.09193 15.9725 9.16055C15.9498 9.22916 15.9136 9.29253 15.866 9.34693L13.6076 12.0574C13.5156 12.1678 13.3835 12.2371 13.2403 12.2501C13.0972 12.2631 12.9548 12.2187 12.8443 12.1268Z" fill="#858585"/>
<path fill-rule="evenodd" clip-rule="evenodd" d="M15.1785 9C15.1785 9.14377 15.1214 9.28165 15.0198 9.38331C14.9181 9.48497 14.7802 9.54209 14.6364 9.54209H6.50509C6.36132 9.54209 6.22343 9.48497 6.12177 9.38331C6.02011 9.28165 5.963 9.14377 5.963 9C5.963 8.85622 6.02011 8.71834 6.12177 8.61668C6.22343 8.51502 6.36132 8.45791 6.50509 8.45791H14.6364C14.7802 8.45791 14.9181 8.51502 15.0198 8.61668C15.1214 8.71834 15.1785 8.85622 15.1785 9ZM0 1.41073C0 1.26696 0.0571131 1.12907 0.158775 1.02741C0.260436 0.92575 0.398319 0.868637 0.542091 0.868637H10.2997C10.4435 0.868637 10.5814 0.92575 10.683 1.02741C10.7847 1.12907 10.8418 1.26696 10.8418 1.41073C10.8418 1.5545 10.7847 1.69238 10.683 1.79404C10.5814 1.89571 10.4435 1.95282 10.2997 1.95282H0.542091C0.398319 1.95282 0.260436 1.89571 0.158775 1.79404C0.0571131 1.69238 0 1.5545 0 1.41073ZM0 16.5893C0 16.4455 0.0571131 16.3076 0.158775 16.2059C0.260436 16.1043 0.398319 16.0472 0.542091 16.0472H10.2997C10.4435 16.0472 10.5814 16.1043 10.683 16.2059C10.7847 16.3076 10.8418 16.4455 10.8418 16.5893C10.8418 16.733 10.7847 16.8709 10.683 16.9726C10.5814 17.0742 10.4435 17.1314 10.2997 17.1314H0.542091C0.398319 17.1314 0.260436 17.0742 0.158775 16.9726C0.0571131 16.8709 0 16.733 0 16.5893Z" fill="#858585"/>
<path fill-rule="evenodd" clip-rule="evenodd" d="M10.2997 0.868637C10.4435 0.868637 10.5814 0.92575 10.683 1.02741C10.7847 1.12907 10.8418 1.26696 10.8418 1.41073V5.74745C10.8418 5.89122 10.7847 6.02911 10.683 6.13077C10.5814 6.23243 10.4435 6.28954 10.2997 6.28954C10.1559 6.28954 10.0181 6.23243 9.9164 6.13077C9.81474 6.02911 9.75763 5.89122 9.75763 5.74745V1.41073C9.75763 1.26696 9.81474 1.12907 9.9164 1.02741C10.0181 0.92575 10.1559 0.868637 10.2997 0.868637ZM10.2997 11.7104C10.4435 11.7104 10.5814 11.7676 10.683 11.8692C10.7847 11.9709 10.8418 12.1088 10.8418 12.2525V16.5893C10.8418 16.733 10.7847 16.8709 10.683 16.9726C10.5814 17.0742 10.4435 17.1314 10.2997 17.1314C10.1559 17.1314 10.0181 17.0742 9.9164 16.9726C9.81474 16.8709 9.75763 16.733 9.75763 16.5893V12.2525C9.75763 12.1088 9.81474 11.9709 9.9164 11.8692C10.0181 11.7676 10.1559 11.7104 10.2997 11.7104ZM0.542091 0.868637C0.685862 0.868637 0.823745 0.92575 0.925406 1.02741C1.02707 1.12907 1.08418 1.26696 1.08418 1.41073V16.5893C1.08418 16.733 1.02707 16.8709 0.925406 16.9726C0.823745 17.0742 0.685862 17.1314 0.542091 17.1314C0.398319 17.1314 0.260436 17.0742 0.158775 16.9726C0.0571131 16.8709 0 16.733 0 16.5893V1.41073C0 1.26696 0.0571131 1.12907 0.158775 1.02741C0.260436 0.92575 0.398319 0.868637 0.542091 0.868637Z" fill="#858585"/>
</svg>
