<svg width="16" height="16" viewBox="0 0 16 16" fill="none" xmlns="http://www.w3.org/2000/svg">
<path d="M8 4.17063C8.75738 4.17063 9.49775 4.39522 10.1275 4.81599C10.7572 5.23677 11.248 5.83483 11.5379 6.53456C11.8277 7.23429 11.9035 8.00424 11.7558 8.74707C11.608 9.48989 11.2433 10.1722 10.7078 10.7078C10.1722 11.2433 9.4899 11.608 8.74707 11.7558C8.00425 11.9035 7.23429 11.8277 6.53456 11.5379C5.83484 11.248 5.23677 10.7572 4.816 10.1275C4.39522 9.49774 4.17063 8.75737 4.17063 8C4.1718 6.98474 4.57563 6.01141 5.29352 5.29352C6.01141 4.57562 6.98475 4.1718 8 4.17063ZM8 10.062C8.40782 10.062 8.80648 9.94103 9.14557 9.71446C9.48466 9.48789 9.74894 9.16585 9.90501 8.78908C10.0611 8.4123 10.1019 7.99771 10.0223 7.59773C9.94279 7.19774 9.7464 6.83034 9.45803 6.54196C9.16966 6.25359 8.80225 6.05721 8.40227 5.97765C8.00229 5.89809 7.58769 5.93892 7.21092 6.09499C6.83414 6.25105 6.51211 6.51534 6.28554 6.85443C6.05896 7.19352 5.93803 7.59218 5.93803 8C5.93803 8.54686 6.15527 9.07133 6.54197 9.45803C6.92866 9.84472 7.45313 10.062 8 10.062ZM1.22496 8.05817V7.94182L0.193981 6.65235C0.107438 6.54431 0.0474882 6.41744 0.0189638 6.28198C-0.00956154 6.14652 -0.00586319 6.00626 0.0297604 5.87249C0.215844 5.17077 0.49392 4.49675 0.856756 3.86796C0.926661 3.74806 1.02383 3.64631 1.14038 3.57095C1.25694 3.49559 1.3896 3.44875 1.52763 3.43421L3.16837 3.25011L3.25011 3.16836L3.43422 1.52689C3.44886 1.38899 3.49576 1.25647 3.57111 1.14005C3.64646 1.02364 3.74815 0.926586 3.86796 0.856752C4.4968 0.492756 5.17109 0.213681 5.87323 0.02681C6.00711 -0.00828872 6.14737 -0.0114473 6.2827 0.0175887C6.41803 0.0466247 6.54465 0.107043 6.65236 0.193977L7.94182 1.22496H8.05818L9.34764 0.193977C9.45569 0.107434 9.58255 0.0474844 9.71801 0.0189597C9.85347 -0.00956501 9.99374 -0.00586693 10.1275 0.0297558C10.8294 0.217002 11.5034 0.49632 12.132 0.860434C12.2515 0.929979 12.3529 1.02657 12.4283 1.14244C12.5036 1.25832 12.5507 1.39025 12.5658 1.52763L12.7499 3.16836L12.8316 3.25011L14.4731 3.43421C14.611 3.44886 14.7435 3.49575 14.8599 3.57111C14.9764 3.64646 15.0734 3.74815 15.1432 3.86796C15.5062 4.49695 15.7843 5.17123 15.9702 5.87322C16.0057 6.00688 16.0094 6.14701 15.9809 6.28233C15.9523 6.41765 15.8924 6.54439 15.806 6.65235L14.775 7.94182V8.05817L15.806 9.34764C15.8926 9.45568 15.9525 9.58255 15.981 9.71801C16.0096 9.85347 16.0059 9.99374 15.9702 10.1275C15.7828 10.8294 15.5032 11.5035 15.1388 12.132C15.0694 12.2514 14.9729 12.3528 14.8571 12.4281C14.7414 12.5034 14.6096 12.5506 14.4724 12.5658L12.8316 12.7484L12.7499 12.8302L12.5658 14.4731C12.5511 14.611 12.5042 14.7435 12.4289 14.8599C12.3535 14.9764 12.2518 15.0734 12.132 15.1432C11.5032 15.5072 10.8289 15.7863 10.1268 15.9732C9.99289 16.0083 9.85263 16.0114 9.7173 15.9824C9.58196 15.9534 9.45535 15.8929 9.34764 15.806L8.05818 14.775H7.94182L6.65236 15.806C6.54431 15.8926 6.41745 15.9525 6.28199 15.981C6.14653 16.0096 6.00626 16.0059 5.87249 15.9702C5.17078 15.7842 4.49676 15.5061 3.86796 15.1432C3.74825 15.0739 3.6465 14.9773 3.57091 14.8615C3.49532 14.7456 3.44799 14.6136 3.43274 14.476L3.25011 12.8353L3.16837 12.7536L1.5269 12.5658C1.38938 12.5505 1.25736 12.5032 1.14148 12.4276C1.02559 12.352 0.929076 12.2503 0.859701 12.1306C0.495706 11.5017 0.216631 10.8274 0.0297604 10.1253C-0.00549889 9.99185 -0.00900841 9.85201 0.0195084 9.71696C0.048027 9.58192 0.10778 9.45543 0.193981 9.34764L1.22496 8.05817ZM3.0012 7.69806C2.9894 7.89918 2.9894 8.10081 3.0012 8.30193C3.01436 8.52055 2.94587 8.73627 2.809 8.90726L1.86344 10.0892C1.9527 10.3534 2.05922 10.6115 2.18231 10.8617L3.68681 11.0289C3.90463 11.0538 4.10542 11.1588 4.25016 11.3234C4.38394 11.4742 4.52657 11.6168 4.67729 11.7506C4.84196 11.8953 4.94695 12.0961 4.97185 12.3139L5.13828 13.8177C5.38849 13.9413 5.64655 14.0483 5.91079 14.138L7.09273 13.1917C7.24959 13.0666 7.44438 12.9985 7.64505 12.9988H7.69807C7.89918 13.0106 8.10082 13.0106 8.30193 12.9988C8.52041 12.9859 8.73597 13.054 8.90727 13.1903L10.0892 14.1366C10.3534 14.0473 10.6115 13.9408 10.8617 13.8177L11.0289 12.3132C11.0538 12.0954 11.1588 11.8946 11.3234 11.7498C11.4742 11.6161 11.6168 11.4734 11.7506 11.3227C11.8953 11.158 12.0961 11.053 12.3139 11.0281L13.8177 10.8617C13.9413 10.6115 14.0483 10.3534 14.138 10.0892L13.1925 8.90726C13.0556 8.73627 12.9871 8.52055 13.0003 8.30193C13.0121 8.10081 13.0121 7.89918 13.0003 7.69806C12.9871 7.47944 13.0556 7.26372 13.1925 7.09273L14.1366 5.91078C14.0473 5.64658 13.9408 5.38852 13.8177 5.13828L12.3132 4.97111C12.0954 4.94621 11.8946 4.84122 11.7498 4.67655C11.6161 4.52583 11.4734 4.3832 11.3227 4.24942C11.158 4.10468 11.0531 3.90389 11.0281 3.68607L10.8617 2.1823C10.6115 2.05872 10.3535 1.9517 10.0892 1.86196L8.90727 2.80826C8.73597 2.94449 8.52041 3.01267 8.30193 2.99972C8.10082 2.98793 7.89918 2.98793 7.69807 2.99972C7.47954 3.01309 7.26383 2.94486 7.09273 2.80826L5.91079 1.86196C5.64655 1.9517 5.38849 2.05872 5.13828 2.1823L4.97112 3.6868C4.94621 3.90463 4.84122 4.10542 4.67655 4.25016C4.52583 4.38394 4.38321 4.52656 4.24943 4.67728C4.10469 4.84196 3.90389 4.94694 3.68607 4.97185L2.18231 5.13828C2.05872 5.38848 1.95171 5.64654 1.86196 5.91078L2.80752 7.09273C2.94492 7.26351 3.01395 7.47925 3.0012 7.69806Z" fill="#0055A9"/>
</svg>
