<svg width="16" height="14" viewBox="0 0 16 14" fill="none" xmlns="http://www.w3.org/2000/svg">
<path d="M4.42857 0.144531C5.90357 0.144531 7.195 0.778817 8 1.85096C8.805 0.778817 10.0964 0.144531 11.5714 0.144531C12.7456 0.145855 13.8712 0.61286 14.7014 1.44309C15.5317 2.27332 15.9987 3.39898 16 4.5731C16 9.5731 8.58643 13.6202 8.27071 13.7874C8.1875 13.8322 8.09449 13.8556 8 13.8556C7.90551 13.8556 7.8125 13.8322 7.72929 13.7874C7.41357 13.6202 0 9.5731 0 4.5731C0.00132275 3.39898 0.468328 2.27332 1.29856 1.44309C2.12879 0.61286 3.25445 0.145855 4.42857 0.144531ZM8 12.6302C9.30429 11.8702 14.8571 8.4081 14.8571 4.5731C14.856 3.70203 14.5095 2.86695 13.8935 2.251C13.2776 1.63506 12.4425 1.28852 11.5714 1.28739C10.1821 1.28739 9.01571 2.02739 8.52857 3.21596C8.48552 3.32077 8.41228 3.41041 8.31817 3.47349C8.22405 3.53658 8.1133 3.57026 8 3.57026C7.8867 3.57026 7.77595 3.53658 7.68183 3.47349C7.58772 3.41041 7.51448 3.32077 7.47143 3.21596C6.98429 2.02525 5.81786 1.28739 4.42857 1.28739C3.55749 1.28852 2.72242 1.63506 2.10647 2.251C1.49053 2.86695 1.14399 3.70203 1.14286 4.5731C1.14286 8.40239 6.69714 11.8695 8 12.6302Z" fill="#0055A9"/>
</svg>
