<svg width="15" height="18" viewBox="0 0 15 18" fill="none" xmlns="http://www.w3.org/2000/svg">
<path fill-rule="evenodd" clip-rule="evenodd" d="M3.74121 6.66099C3.74121 5.73047 4.11086 4.83807 4.76884 4.18009C5.42681 3.52211 6.31922 3.15247 7.24974 3.15247C8.18026 3.15247 9.07267 3.52211 9.73064 4.18009C10.3886 4.83807 10.7583 5.73047 10.7583 6.66099C10.7583 7.59151 10.3886 8.48392 9.73064 9.1419C9.07267 9.79988 8.18026 10.1695 7.24974 10.1695C6.31922 10.1695 5.42681 9.79988 4.76884 9.1419C4.11086 8.48392 3.74121 7.59151 3.74121 6.66099ZM7.24974 4.55588C6.69143 4.55588 6.15598 4.77767 5.7612 5.17245C5.36641 5.56724 5.14462 6.10268 5.14462 6.66099C5.14462 7.21931 5.36641 7.75475 5.7612 8.14954C6.15598 8.54432 6.69143 8.76611 7.24974 8.76611C7.80805 8.76611 8.3435 8.54432 8.73828 8.14954C9.13307 7.75475 9.35486 7.21931 9.35486 6.66099C9.35486 6.10268 9.13307 5.56724 8.73828 5.17245C8.3435 4.77767 7.80805 4.55588 7.24974 4.55588Z" fill="#0055A9"/>
<path fill-rule="evenodd" clip-rule="evenodd" d="M1.12707 5.84421C1.25061 4.34555 1.93323 2.94815 3.0394 1.92951C4.14557 0.910872 5.59438 0.345491 7.09812 0.345642H7.40126C8.905 0.345491 10.3538 0.910872 11.46 1.92951C12.5661 2.94815 13.2488 4.34555 13.3723 5.84421C13.5091 7.50984 12.9946 9.16361 11.9371 10.4577L8.57358 14.5716C8.41317 14.7677 8.21118 14.9257 7.98223 15.0342C7.75327 15.1428 7.50306 15.1991 7.24969 15.1991C6.99632 15.1991 6.74611 15.1428 6.51715 15.0342C6.2882 14.9257 6.08622 14.7677 5.92581 14.5716L2.5623 10.4577C1.50499 9.16385 0.99053 7.51046 1.12707 5.84514M7.09812 1.74999C5.94667 1.74985 4.83728 2.18274 3.99024 2.96271C3.14319 3.74268 2.62045 4.81267 2.52581 5.96022C2.41863 7.26368 2.82108 8.55791 3.64854 9.57073L7.01205 13.6837C7.13461 13.8334 7.36477 13.8334 7.48733 13.6837L10.8508 9.57073C11.6783 8.55791 12.0808 7.26368 11.9736 5.96022C11.8789 4.81267 11.3562 3.74268 10.5091 2.96271C9.6621 2.18274 8.55271 1.74985 7.40126 1.74999H7.09812Z" fill="#0055A9"/>
<path d="M3.19882 13.5237C3.24549 13.4409 3.27484 13.3494 3.28509 13.2549C3.29534 13.1604 3.28628 13.0648 3.25846 12.9739C3.23063 12.883 3.18463 12.7987 3.12323 12.7261C3.06183 12.6535 2.98632 12.5941 2.90129 12.5516C2.81626 12.5091 2.72347 12.4843 2.62856 12.4787C2.53365 12.4732 2.43861 12.487 2.34918 12.5192C2.25976 12.5515 2.17784 12.6016 2.10837 12.6666C2.03891 12.7315 1.98337 12.8098 1.9451 12.8968L0.0738898 16.6393C0.0205162 16.7462 -0.00467188 16.865 0.000712969 16.9843C0.00609782 17.1037 0.0418774 17.2197 0.10466 17.3214C0.167443 17.4231 0.255149 17.507 0.359465 17.5653C0.463782 17.6236 0.581254 17.6542 0.700747 17.6544H13.7993C13.9187 17.6542 14.0362 17.6236 14.1405 17.5653C14.2449 17.507 14.3326 17.4231 14.3953 17.3214C14.4581 17.2197 14.4939 17.1037 14.4993 16.9843C14.5047 16.865 14.4795 16.7462 14.4261 16.6393L12.5549 12.8968C12.5166 12.8098 12.4611 12.7315 12.3916 12.6666C12.3222 12.6016 12.2402 12.5515 12.1508 12.5192C12.0614 12.487 11.9663 12.4732 11.8714 12.4787C11.7765 12.4843 11.6837 12.5091 11.5987 12.5516C11.5137 12.5941 11.4382 12.6535 11.3768 12.7261C11.3154 12.7987 11.2694 12.883 11.2415 12.9739C11.2137 13.0648 11.2047 13.1604 11.2149 13.2549C11.2252 13.3494 11.2545 13.4409 11.3012 13.5237L12.6644 16.251H1.83657L3.19882 13.5237Z" fill="#0055A9"/>
</svg>
