<svg width="17" height="18" viewBox="0 0 17 18" fill="none" xmlns="http://www.w3.org/2000/svg">
<path d="M16.6713 7.36794H16.0001V7.33335H8.50008V10.6667H13.2097C12.5226 12.6071 10.6763 14 8.50008 14C5.73883 14 3.50008 11.7613 3.50008 9.00002C3.50008 6.23877 5.73883 4.00002 8.50008 4.00002C9.77466 4.00002 10.9342 4.48085 11.8172 5.26627L14.1742 2.90919C12.6859 1.5221 10.6951 0.666687 8.50008 0.666687C3.898 0.666687 0.166748 4.39794 0.166748 9.00002C0.166748 13.6021 3.898 17.3334 8.50008 17.3334C13.1022 17.3334 16.8334 13.6021 16.8334 9.00002C16.8334 8.44127 16.7759 7.89585 16.6713 7.36794Z" fill="#FFC107"/>
<path d="M1.12744 5.12127L3.86536 7.12919C4.60619 5.29502 6.40036 4.00002 8.49994 4.00002C9.77453 4.00002 10.9341 4.48085 11.817 5.26627L14.1741 2.90919C12.6858 1.5221 10.6949 0.666687 8.49994 0.666687C5.29911 0.666687 2.52327 2.47377 1.12744 5.12127Z" fill="#FF3D00"/>
<path d="M8.50005 17.3333C10.6525 17.3333 12.6084 16.5096 14.0871 15.17L11.508 12.9875C10.6433 13.6454 9.58654 14.0012 8.50005 14C6.33255 14 4.49213 12.6179 3.7988 10.6891L1.0813 12.7829C2.46047 15.4816 5.2613 17.3333 8.50005 17.3333Z" fill="#4CAF50"/>
<path d="M16.6712 7.36777H16V7.33319H8.5V10.6665H13.2096C12.8809 11.59 12.2889 12.397 11.5067 12.9878L11.5079 12.9869L14.0871 15.1694C13.9046 15.3353 16.8333 13.1665 16.8333 8.99986C16.8333 8.44111 16.7758 7.89569 16.6712 7.36777Z" fill="#1976D2"/>
</svg>
